<svg width="33" height="26" viewBox="0 0 33 26" fill="none" xmlns="http://www.w3.org/2000/svg">
<path d="M16.6351 17.6133H13.0697C12.2291 17.6133 11.423 17.9977 10.8286 18.6821C10.2343 19.3664 9.90039 20.2946 9.90039 21.2624V23.087" stroke="white" stroke-linecap="round" stroke-linejoin="round"/>
<path d="M14.8049 15.0008C16.6027 15.0008 18.06 13.5202 18.06 11.6937C18.06 9.86732 16.6027 8.38672 14.8049 8.38672C13.0072 8.38672 11.5498 9.86732 11.5498 11.6937C11.5498 13.5202 13.0072 15.0008 14.8049 15.0008Z" stroke="white" stroke-linecap="round" stroke-linejoin="round"/>
<line y1="-0.5" x2="9.25599" y2="-0.5" transform="matrix(0.582083 -0.813129 0.804276 0.594257 20.625 20.5264)" stroke="white"/>
<line x1="14.1426" y1="21.7109" x2="6.06095" y2="21.7109" stroke="white"/>
<line x1="6.23438" y1="21.8945" x2="6.23438" y2="6.15769" stroke="white"/>
<line x1="6.73438" y1="6.3418" x2="30.9793" y2="6.3418" stroke="white"/>
<line x1="30.8057" y1="6.8418" x2="30.8057" y2="21.8944" stroke="white"/>
<line y1="-0.5" x2="24.5319" y2="-0.5" transform="matrix(0.99997 -0.00777089 0.00751894 0.999972 5.77539 22.6455)" stroke="white"/>
</svg>
