<svg width="25" height="25" viewBox="0 0 25 25" fill="none" xmlns="http://www.w3.org/2000/svg">
<path d="M10.6963 21.875C10.8791 22.1917 11.1421 22.4547 11.4588 22.6375C11.7755 22.8203 12.1348 22.9166 12.5005 22.9166C12.8661 22.9166 13.2254 22.8203 13.5421 22.6375C13.8588 22.4547 14.1218 22.1917 14.3046 21.875" stroke="white" stroke-width="2" stroke-linecap="round" stroke-linejoin="round"/>
<path d="M22.9163 8.3335C22.9163 5.93766 22.083 3.85433 20.833 2.0835" stroke="white" stroke-width="2" stroke-linecap="round" stroke-linejoin="round"/>
<path d="M3.39813 15.9647C3.26205 16.1139 3.17225 16.2994 3.13965 16.4986C3.10705 16.6979 3.13305 16.9023 3.21449 17.087C3.29594 17.2718 3.42931 17.4289 3.5984 17.5392C3.76748 17.6495 3.96499 17.7083 4.16688 17.7085H20.8335C21.0354 17.7086 21.233 17.65 21.4022 17.5399C21.5713 17.4297 21.7049 17.2728 21.7866 17.0882C21.8682 16.9036 21.8945 16.6992 21.8621 16.4999C21.8298 16.3007 21.7402 16.1151 21.6044 15.9658C20.219 14.5377 18.7502 13.02 18.7502 8.3335C18.7502 6.67589 18.0917 5.08618 16.9196 3.91408C15.7475 2.74198 14.1578 2.0835 12.5002 2.0835C10.8426 2.0835 9.2529 2.74198 8.0808 3.91408C6.9087 5.08618 6.25022 6.67589 6.25022 8.3335C6.25022 13.02 4.78042 14.5377 3.39813 15.9647Z" fill="white" stroke="white" stroke-width="2" stroke-linecap="round" stroke-linejoin="round"/>
<path d="M4.16634 2.0835C2.91634 3.85433 2.08301 5.93766 2.08301 8.3335" stroke="white" stroke-width="2" stroke-linecap="round" stroke-linejoin="round"/>
</svg>
